<svg fill="none" viewBox="0 0 32 32" class="icon"><path d="M0 8.05C0 6.92.9 6 2 6h28c1.1 0 2 .92 2 2.05v16.38c0 1.13-.9 2.05-2 2.05H2c-1.1 0-2-.92-2-2.05V8.05z" fill="url(#sberpay_svg__a)"></path><path d="M16.2 17.44v1.86h-1.07v-5.96h1.99c1.88 0 2.68.67 2.68 2.02 0 1.39-.93 2.08-2.68 2.08h-.92zm0-3.12v2.14h1c.99 0 1.5-.32 1.5-1.13 0-.73-.44-1.01-1.48-1.01H16.2zm4.17 1.02c.28-.21.79-.38 1.52-.38 1.25 0 1.86.42 1.86 1.53v2.81h-.94v-.76c-.2.49-.72.83-1.4.83-.86 0-1.37-.48-1.37-1.32 0-.97.7-1.24 1.75-1.24h.96v-.2c0-.6-.29-.78-.86-.78-.78 0-1.23.3-1.52.75v-1.24zm2.38 2.46v-.35h-.84c-.59 0-.87.12-.87.5 0 .32.24.53.68.53.67 0 .99-.39 1.03-.68zm1.49-2.76h1.12l1.16 2.92.96-2.92h1.05l-1.7 4.71c-.38 1.03-.76 1.26-1.32 1.26-.27 0-.56-.08-.68-.19v-.93c.13.13.32.21.5.21.31 0 .54-.2.7-.77l-1.79-4.29zm-17.41.3v1.31l1.73 1.1 4.15-3.07a4.56 4.56 0 00-.54-.9l-3.61 2.65-1.73-1.09z" fill="#fff"></path><path d="M12.06 16.46v.1a3.51 3.51 0 11-1.52-2.9l.89-.65a4.56 4.56 0 101.62 2.73l-.99.72z" fill="#fff"></path><defs><linearGradient id="sberpay_svg__a" x1="17.25" y1="41.51" x2="40.68" y2="20.74" gradientUnits="userSpaceOnUse"><stop stop-color="#C7E701"></stop><stop offset="0.24" stop-color="#0ADA01"></stop><stop offset="0.44" stop-color="#21DE58"></stop><stop offset="0.63" stop-color="#3EE3A9"></stop><stop offset="0.81" stop-color="#37DABE"></stop><stop offset="1" stop-color="#15CAE0"></stop></linearGradient></defs></svg>